<svg xmlns="http://www.w3.org/2000/svg" viewBox="0 0 980 540"><rect width="980" height="540" fill="#FFFFFF"/><text x="48" y="52" font-family="-apple-system,'Segoe UI',Roboto,'Helvetica Neue',Arial,sans-serif" font-size="11" font-weight="600" fill="#4F46E5" text-anchor="start" letter-spacing="2.5">COLUSION-ACTION</text><text x="48" y="82" font-family="-apple-system,'Segoe UI',Roboto,'Helvetica Neue',Arial,sans-serif" font-size="22" font-weight="600" fill="#1F2328" text-anchor="start">El patrón en el grafo</text><text x="48" y="104" font-family="-apple-system,'Segoe UI',Roboto,'Helvetica Neue',Arial,sans-serif" font-size="12.5" font-weight="400" fill="#59636E" text-anchor="start">Lo que la action convierte en aristas.</text><path d="M 284 262 L 500 316" fill="none" stroke="#59636E" stroke-width="1.5" stroke-linejoin="round"/><line x1="500" y1="316" x2="492.2" y2="317.6" stroke="#59636E" stroke-width="1.5" stroke-linecap="round"/><line x1="500" y1="316" x2="493.8" y2="310.9" stroke="#59636E" stroke-width="1.5" stroke-linecap="round"/><text x="378" y="250" font-family="-apple-system,'Segoe UI',Roboto,'Helvetica Neue',Arial,sans-serif" font-size="9.5" font-weight="600" fill="#59636E" text-anchor="middle" letter-spacing="1.1">PARTICIPÓ_EN · POSTURA</text><text x="378" y="268" font-family="-apple-system,'Segoe UI',Roboto,'Helvetica Neue',Arial,sans-serif" font-size="11" font-weight="400" fill="#59636E" text-anchor="middle">gana en t₁</text><path d="M 284 402 L 500 348" fill="none" stroke="#59636E" stroke-width="1.5" stroke-linejoin="round"/><line x1="500" y1="348" x2="493.8" y2="353.1" stroke="#59636E" stroke-width="1.5" stroke-linecap="round"/><line x1="500" y1="348" x2="492.2" y2="346.4" stroke="#59636E" stroke-width="1.5" stroke-linecap="round"/><text x="378" y="404" font-family="-apple-system,'Segoe UI',Roboto,'Helvetica Neue',Arial,sans-serif" font-size="9.5" font-weight="600" fill="#59636E" text-anchor="middle" letter-spacing="1.1">PARTICIPÓ_EN · POSTURA</text><text x="378" y="422" font-family="-apple-system,'Segoe UI',Roboto,'Helvetica Neue',Arial,sans-serif" font-size="11" font-weight="400" fill="#59636E" text-anchor="middle">gana en t₂</text><path d="M 250 278 L 250 386" fill="none" stroke="#4F46E5" stroke-width="1.8" stroke-linejoin="round"/><line x1="250" y1="386" x2="246.6" y2="378.8" stroke="#4F46E5" stroke-width="1.8" stroke-linecap="round"/><line x1="250" y1="386" x2="253.4" y2="378.8" stroke="#4F46E5" stroke-width="1.8" stroke-linecap="round"/><text x="226" y="326" font-family="-apple-system,'Segoe UI',Roboto,'Helvetica Neue',Arial,sans-serif" font-size="9.5" font-weight="600" fill="#4F46E5" text-anchor="end" letter-spacing="1.1">COLUDIDO_CON</text><text x="226" y="344" font-family="-apple-system,'Segoe UI',Roboto,'Helvetica Neue',Arial,sans-serif" font-size="11" font-weight="400" fill="#59636E" text-anchor="end">score · señales</text><path d="M 284 224 Q 533.1 190.4 752 314" fill="none" stroke="#59636E" stroke-width="1.2" stroke-dasharray="4 5"/><line x1="752" y1="314" x2="744.0" y2="313.4" stroke="#59636E" stroke-width="1.2" stroke-linecap="round"/><line x1="752" y1="314" x2="747.4" y2="307.5" stroke="#59636E" stroke-width="1.2" stroke-linecap="round"/><path d="M 284 440 Q 533.1 473.6 752 350" fill="none" stroke="#59636E" stroke-width="1.2" stroke-dasharray="4 5"/><line x1="752" y1="350" x2="747.4" y2="356.5" stroke="#59636E" stroke-width="1.2" stroke-linecap="round"/><line x1="752" y1="350" x2="744.0" y2="350.6" stroke="#59636E" stroke-width="1.2" stroke-linecap="round"/><text x="818" y="276" font-family="-apple-system,'Segoe UI',Roboto,'Helvetica Neue',Arial,sans-serif" font-size="9.5" font-weight="600" fill="#59636E" text-anchor="middle" letter-spacing="1.1">DETECTADO_EN · CORRIDA</text><circle cx="250" cy="240" r="34" fill="#F6F8FA" stroke="#D1D9E0" stroke-width="1.5"/><circle cx="250" cy="232" r="7" fill="none" stroke="#1F2328" stroke-width="1.8"/><path d="M 236 256 A 14 14 0 0 1 264 256" fill="none" stroke="#1F2328" stroke-width="1.8" stroke-linecap="round"/><text x="250" y="188" font-family="-apple-system,'Segoe UI',Roboto,'Helvetica Neue',Arial,sans-serif" font-size="12.5" font-weight="600" fill="#1F2328" text-anchor="middle">proveedor a</text><circle cx="250" cy="424" r="34" fill="#F6F8FA" stroke="#D1D9E0" stroke-width="1.5"/><circle cx="250" cy="416" r="7" fill="none" stroke="#1F2328" stroke-width="1.8"/><path d="M 236 440 A 14 14 0 0 1 264 440" fill="none" stroke="#1F2328" stroke-width="1.8" stroke-linecap="round"/><text x="250" y="482" font-family="-apple-system,'Segoe UI',Roboto,'Helvetica Neue',Arial,sans-serif" font-size="12.5" font-weight="600" fill="#1F2328" text-anchor="middle">proveedor b</text><rect x="500" y="292" width="80" height="80" rx="14" fill="#F6F8FA" stroke="#D1D9E0" stroke-width="1.5" transform="rotate(45 540 332)"/><rect x="531" y="320" width="18" height="24" rx="3" fill="none" stroke="#59636E" stroke-width="1.5"/><line x1="536" y1="327" x2="544" y2="327" stroke="#59636E" stroke-width="1.2"/><line x1="536" y1="333" x2="544" y2="333" stroke="#59636E" stroke-width="1.2"/><line x1="536" y1="339" x2="544" y2="339" stroke="#59636E" stroke-width="1.2"/><text x="540" y="258" font-family="-apple-system,'Segoe UI',Roboto,'Helvetica Neue',Arial,sans-serif" font-size="12.5" font-weight="600" fill="#1F2328" text-anchor="middle">licitación</text><rect x="756" y="302" width="124" height="60" rx="10" fill="#F6F8FA" stroke="#D1D9E0" stroke-width="1.2"/><rect x="773" y="320" width="18" height="24" rx="3" fill="none" stroke="#59636E" stroke-width="1.5"/><line x1="778" y1="327" x2="786" y2="327" stroke="#59636E" stroke-width="1.2"/><line x1="778" y1="333" x2="786" y2="333" stroke="#59636E" stroke-width="1.2"/><line x1="778" y1="339" x2="786" y2="339" stroke="#59636E" stroke-width="1.2"/><text x="830" y="330" font-family="-apple-system,'Segoe UI',Roboto,'Helvetica Neue',Arial,sans-serif" font-size="13" font-weight="600" fill="#1F2328" text-anchor="middle">corrida</text><text x="830" y="347" font-family="-apple-system,'Segoe UI',Roboto,'Helvetica Neue',Arial,sans-serif" font-size="10.5" font-weight="400" fill="#59636E" text-anchor="middle">proveniencia</text><text x="48" y="500" font-family="-apple-system,'Segoe UI',Roboto,'Helvetica Neue',Arial,sans-serif" font-size="12" font-weight="400" fill="#59636E" text-anchor="start">Dos proveedores, las mismas licitaciones y el ganador que alterna: el patrón que GQL encuentra y la action persiste.</text></svg>